<?xml version="1.0" encoding="iso-8859-1"?>
<!-- Uploaded to: SVG Repo, www.svgrepo.com, Generator: SVG Repo Mixer Tools -->
<svg fill="#000000" height="800px" width="800px" version="1.1" id="Capa_1" xmlns="http://www.w3.org/2000/svg" xmlns:xlink="http://www.w3.org/1999/xlink" 
	 viewBox="0 0 537.984 537.984" xml:space="preserve">
<g>
	<path d="M99.131,193.425c-0.024-0.012-0.084-0.096-0.108-0.096c-6.504-0.753-36.073-5.404-49.153-28.767
		c-5.141-9.195-4.938-25.551,0.406-32.414c1.005-1.303,2.69-3.467,10.45-1.387c12.339,3.372,25.013-3.97,28.325-16.273
		c3.324-12.327-3.958-25.025-16.285-28.325c-23.758-6.445-45.22,0-58.946,17.6C-2.811,125.118-4.676,161.74,9.552,187.16
		c18.27,32.629,50.672,45.004,70.723,49.667l5.906,23.566L43.437,351.61c-1.423,3.073-2.176,6.421-2.176,9.78v98.689
		c0,12.746,10.354,23.124,23.112,23.124c12.757,0,23.112-10.354,23.112-23.124v-65.342l53.075-48.245
		c28.684,6.731,71.153,14.898,108.673,14.898c42.123,0,95.712-10.306,127.074-17.289v115.978c0,12.746,10.33,23.124,23.1,23.124
		c12.769,0,23.124-10.354,23.124-23.124V276.224l-132.801-82.799H99.131z"/>
	<path d="M532.889,183.812l-98.844-65.904v-51.58c0-5.081-3.324-9.565-8.202-11.048c-4.854-1.483-10.151,0.419-12.973,4.651
		l-86.218,129.31l96.393,60.105l6.289-15.699l59.256,17.098c4.831,1.363,10.032-0.514,12.817-4.699l22.466-33.705l10.737-10.749
		c2.439-2.439,3.671-5.859,3.312-9.302C537.66,188.834,535.794,185.725,532.889,183.812z"/>
	<circle cx="322.156" cy="200.515" r="5.775"/>
	<circle cx="351.772" cy="219.036" r="5.775"/>
	<circle cx="381.364" cy="237.568" r="5.775"/>
	<circle cx="410.981" cy="256.101" r="5.775"/>
</g>
</svg>