<svg width="12" height="12" viewBox="0 0 40 40" fill="none" xmlns="http://www.w3.org/2000/svg">
<path d="M36.7904 26.2554C34.3415 26.2554 31.9369 25.8724 29.6582 25.1194C28.5417 24.7385 27.1691 25.0879 26.4876 25.7878L21.99 29.183C16.7741 26.3988 13.5611 23.1869 10.8149 18.0101L14.1102 13.6297C14.9664 12.7747 15.2734 11.5257 14.9055 10.3539C14.1493 8.06323 13.7651 5.65979 13.7651 3.20979C13.7652 1.4399 12.3253 0 10.5555 0H3.20969C1.4399 0 0 1.4399 0 3.20969C0 23.4961 16.504 40 36.7904 40C38.5602 40 40.0001 38.5601 40.0001 36.7903V29.465C40 27.6953 38.5601 26.2554 36.7904 26.2554Z" fill="#fff"/>
</svg>
